<?xml version="1.0" encoding="UTF-8"?> <svg xmlns="http://www.w3.org/2000/svg" width="52" height="52" viewBox="0 0 52 52" fill="none"><g clip-path="url(#clip0_1212_1010)"><path d="M18.1579 20.2966C18.252 13.0242 9.74401 8.54871 3.87186 12.8243C3.70969 12.9421 3.60049 13.1191 3.56794 13.3168C3.53538 13.5146 3.5821 13.7172 3.69795 13.8808C3.81381 14.0443 3.98946 14.1556 4.18683 14.1905C4.3842 14.2254 4.58737 14.1811 4.75228 14.0672C9.64187 10.5088 16.714 14.2429 16.6348 20.2968C16.6349 24.4929 13.2483 27.9067 9.08565 27.9067C3.5111 27.9769 -0.236906 21.7507 2.37258 16.817C2.46451 16.6372 2.48125 16.4282 2.41909 16.236C2.35694 16.0439 2.221 15.8842 2.04116 15.7923C1.86133 15.7004 1.65234 15.6836 1.46017 15.7458C1.268 15.8079 1.10839 15.9439 1.01646 16.1237C-2.11614 22.0495 2.38964 29.5137 9.08565 29.4298C14.0881 29.4297 18.1579 25.3325 18.1579 20.2966Z" fill="#5451DB"></path><path d="M6.53023 24.3186C6.68494 24.3185 6.83598 24.2714 6.96325 24.1834C7.09052 24.0955 7.18799 23.9708 7.24271 23.8261L7.66196 22.7173H10.5133L10.928 23.824C10.9988 24.0131 11.1419 24.1664 11.3258 24.25C11.5096 24.3336 11.7192 24.3408 11.9083 24.2699C12.0974 24.1991 12.2507 24.056 12.3343 23.8721C12.4179 23.6883 12.4251 23.4788 12.3543 23.2896L9.94571 16.8607C9.88015 16.6885 9.76378 16.5402 9.61202 16.4355C9.46026 16.3309 9.28029 16.2749 9.09595 16.2749C8.91525 16.2746 8.73861 16.3285 8.58881 16.4296C8.439 16.5306 8.32289 16.6742 8.25544 16.8419L8.24884 16.8588L5.81826 23.2874C5.6427 23.7516 6.04926 24.3186 6.53023 24.3186ZM9.09413 18.9293L9.94267 21.1942H8.23777L9.09413 18.9293ZM28.9738 10.6372C28.9738 9.82986 28.5932 9.11057 28.0033 8.6498C29.0213 7.20129 27.9258 5.09177 26.1416 5.11817H24.2613C24.0594 5.11817 23.8657 5.1984 23.7228 5.34121C23.58 5.48402 23.4998 5.67772 23.4998 5.87969V12.4001C23.4998 12.7793 23.8788 13.1617 24.2648 13.1617C24.2649 13.1617 25.9935 13.1539 26.47 13.1539C27.8506 13.1538 28.9738 12.0248 28.9738 10.6372ZM26.1417 6.64111C27.1045 6.67248 27.1034 8.08932 26.139 8.11877C25.767 8.12039 25.395 8.121 25.0229 8.12049V6.64111H26.1417ZM25.0228 9.64567C25.5052 9.64364 25.9876 9.64293 26.4699 9.64344C27.7682 9.69004 27.7676 11.5843 26.4699 11.6306C26.2043 11.6306 25.551 11.633 25.0228 11.6352V9.64567ZM42.9278 11.1635C37.9253 11.1635 33.8555 15.2606 33.8555 20.2966C34.3125 32.3966 51.5447 32.3933 52 20.2965C52 15.2606 47.9302 11.1635 42.9278 11.1635ZM42.9278 27.9067C38.7651 27.9067 35.3785 24.4928 35.3785 20.2966C35.759 10.2144 50.098 10.2171 50.477 20.2967C50.477 24.4927 47.0904 27.9067 42.9278 27.9067Z" fill="#5451DB"></path><path d="M45.5924 22.0512C45.4372 21.922 45.237 21.8598 45.0359 21.8782C44.8348 21.8966 44.6492 21.9941 44.52 22.1493C43.1002 23.6894 40.525 22.2694 40.5913 20.2967C40.5658 18.3312 42.8389 17.1 44.4475 18.2228C44.6145 18.3364 44.8197 18.3791 45.0181 18.3413C45.2166 18.3036 45.3919 18.1886 45.5055 18.0217C45.6191 17.8547 45.6618 17.6494 45.624 17.451C45.5863 17.2526 45.4713 17.0773 45.3044 16.9636C42.7097 15.1502 39.0273 17.1262 39.0684 20.2968C38.9781 23.666 43.4004 25.7808 45.6906 23.1238C45.8198 22.9685 45.882 22.7683 45.8636 22.5672C45.8452 22.366 45.7476 22.1804 45.5924 22.0512ZM39.3439 39.967C39.1419 39.967 38.9482 40.0472 38.8054 40.19C38.6626 40.3329 38.5823 40.5266 38.5823 40.7285C38.5823 42.2805 38.008 43.7639 36.9685 44.9014L35.5238 46.4606C35.3935 46.6012 35.321 46.7858 35.3208 46.9776L35.3177 51.2311C35.3177 51.3311 35.3373 51.4302 35.3755 51.5226C35.4137 51.615 35.4698 51.699 35.5404 51.7698C35.6111 51.8405 35.695 51.8967 35.7874 51.935C35.8797 51.9733 35.9788 51.9931 36.0788 51.9932H36.0793C36.2812 51.9932 36.4748 51.913 36.6176 51.7703C36.7604 51.6276 36.8407 51.434 36.8408 51.2322L36.8436 47.2768L38.0893 45.9325C39.3894 44.5095 40.1053 42.6614 40.1053 40.7283C40.1053 40.6283 40.0856 40.5293 40.0473 40.437C40.0091 40.3446 39.953 40.2606 39.8823 40.19C39.8116 40.1193 39.7276 40.0632 39.6352 40.0249C39.5429 39.9867 39.4439 39.967 39.3439 39.967Z" fill="#5451DB"></path><path d="M35.7124 34.0008V32.0951C35.7373 30.1817 38.6187 30.4309 38.5778 32.3059L38.5801 36.3062C38.5802 36.5081 38.6605 36.7017 38.8033 36.8444C38.9461 36.9872 39.1397 37.0674 39.3416 37.0674H39.342C39.442 37.0673 39.541 37.0475 39.6334 37.0092C39.7258 36.9709 39.8097 36.9148 39.8804 36.844C39.951 36.7733 40.0071 36.6893 40.0453 36.5969C40.0835 36.5045 40.1032 36.4054 40.1031 36.3054L40.1009 32.3055C40.1508 29.9325 37.5147 28.4997 35.5253 29.6535C34.8919 27.9182 32.5675 27.2785 31.0597 28.2699C30.3845 26.8127 28.3792 26.3137 26.9862 27.0338V18.218C38.3112 16.5752 37.4422 0.424515 26.0067 0.0065918C16.9603 0.0488309 13.5575 11.9658 21.1351 16.8454C20.9568 17.6381 21.1172 31.6712 21.0702 37.0764L16.1426 32.7101C15.0456 31.7375 13.2637 32.0678 12.3254 33.0679C11.2975 34.1637 11.2259 35.7192 12.1512 36.8505L12.1625 36.8639L21.0708 47.2597V51.2316C21.0708 51.4335 21.1511 51.6272 21.2939 51.77C21.4367 51.9129 21.6304 51.9931 21.8324 51.9931C22.0343 51.9931 22.228 51.9129 22.3708 51.77C22.5137 51.6272 22.5939 51.4335 22.5939 51.2316V46.978C22.5939 46.7963 22.5289 46.6205 22.4106 46.4825L13.3251 35.8801C12.7954 35.226 13.0533 34.5182 13.4363 34.1098C13.8114 33.7099 14.486 33.4143 15.1648 33.8786L21.3273 39.339C21.4372 39.4363 21.5727 39.4998 21.7178 39.5218C21.8628 39.5439 22.0111 39.5236 22.1449 39.4633C22.2787 39.4031 22.3922 39.3056 22.4718 39.1824C22.5515 39.0592 22.5939 38.9156 22.5939 38.7689C22.5936 37.9234 22.5865 18.0574 22.5844 17.5311C22.5823 17.0051 22.7875 16.6186 23.1942 16.3824C23.6779 16.1015 24.3557 16.1008 24.8425 16.3809C25.2522 16.6167 25.4607 17.0026 25.4629 17.5271V17.5282L25.4632 17.5316C25.4618 17.5295 25.4646 31.5822 25.4634 31.5821C25.4955 32.5888 26.9549 32.5887 26.9865 31.5821V29.5712C26.9865 28.7556 27.6117 28.2303 28.4029 28.2303C29.4537 28.2303 29.8265 28.9527 29.8265 29.5712V32.6285C29.8569 33.6336 31.3184 33.636 31.3496 32.6285V30.6229C31.3496 29.6625 32.0843 29.3217 32.7135 29.3217C33.2617 29.3217 34.1896 29.6178 34.1896 30.728V34.0008C34.2178 35.004 35.6816 35.0095 35.7124 34.0008ZM22.4291 15.0654C22.2222 15.1854 22.0317 15.3317 21.8625 15.5007C15.6627 11.3818 18.5323 1.56091 26.0068 1.52964C35.493 1.87202 36.2529 15.2765 26.8733 16.699C26.6794 16.0038 26.2401 15.428 25.6022 15.0609C24.6512 14.5136 23.376 14.5154 22.4291 15.0654Z" fill="#5451DB"></path></g><defs><clipPath id="clip0_1212_1010"><rect width="52" height="52" fill="white"></rect></clipPath></defs></svg> 