<?xml version="1.0" encoding="UTF-8"?> <svg xmlns="http://www.w3.org/2000/svg" width="515" height="495" viewBox="0 0 515 495" fill="none"> <path d="M105.777 348.229C66.9318 348.229 35.4419 317.388 35.4419 279.343C35.4419 241.299 66.9318 210.457 105.777 210.457H445.415" stroke="#5451DB" stroke-width="17" stroke-miterlimit="10" stroke-linecap="round" stroke-linejoin="round"></path> <path d="M202.499 317.152H438.416C447.178 317.152 454.281 324.109 454.281 332.69C454.281 341.272 447.178 348.228 438.416 348.228" stroke="#5451DB" stroke-width="17" stroke-miterlimit="10" stroke-linecap="round" stroke-linejoin="round"></path> <path d="M438.415 241.533H105.777C84.4558 241.533 67.1718 258.46 67.1718 279.342C67.1718 300.224 84.4558 317.152 105.777 317.152H167.499" stroke="#5451DB" stroke-width="17" stroke-miterlimit="10" stroke-linecap="round" stroke-linejoin="round"></path> <path d="M432.069 244.077C427.34 255.258 424.906 267.241 424.906 279.343C424.906 291.444 427.34 303.428 432.069 314.608" stroke="#5451DB" stroke-width="17" stroke-miterlimit="10" stroke-linecap="round" stroke-linejoin="round"></path> <path d="M459.092 381.621C449.543 404.201 449.543 429.572 459.092 452.152" stroke="#5451DB" stroke-width="17" stroke-miterlimit="10" stroke-linecap="round" stroke-linejoin="round"></path> <path d="M140.698 242.05V289.7L163.682 280.886L186.665 289.7V242.05" stroke="#5451DB" stroke-width="17" stroke-miterlimit="10" stroke-linecap="round" stroke-linejoin="round"></path> <path d="M410.499 454.924H464.857C473.62 454.924 480.723 461.881 480.723 470.462C480.723 479.044 473.62 486 464.857 486H79.3348C40.4899 486 9 455.159 9 417.115C9 379.071 40.4899 348.229 79.3348 348.229H464.857C473.62 348.229 480.723 355.185 480.723 363.767C480.723 372.348 473.62 379.305 464.857 379.305H79.3348C58.0138 379.305 40.7299 396.233 40.7299 417.115C40.7299 437.996 58.0138 454.924 79.3348 454.924H375.499" stroke="#5451DB" stroke-width="17" stroke-miterlimit="10" stroke-linecap="round" stroke-linejoin="round"></path> <path d="M323.369 380.176V427.826L346.353 419.012L369.337 427.826V380.176" stroke="#5451DB" stroke-width="17" stroke-miterlimit="10" stroke-linecap="round" stroke-linejoin="round"></path> <path d="M181.326 28.6175L233.825 10.818C240.974 8.39394 248.748 8.39394 255.897 10.818L466.754 82.3078C474.156 84.818 474.156 95.0713 466.754 97.5805L384.555 125.45" stroke="#5451DB" stroke-width="17" stroke-miterlimit="10" stroke-linecap="round" stroke-linejoin="round"></path> <path d="M104.647 125.273L22.969 97.5805C15.567 95.0703 15.567 84.817 22.969 82.3078L147.645 40.0372" stroke="#5451DB" stroke-width="17" stroke-miterlimit="10" stroke-linecap="round" stroke-linejoin="round"></path> <path d="M472.306 91.2997V148.748" stroke="#5451DB" stroke-width="17" stroke-miterlimit="10" stroke-linecap="round" stroke-linejoin="round"></path> <path d="M458.107 188.863L439.644 233.435C435.965 242.316 442.574 252.049 452.283 252.049H492.328C502.037 252.049 508.646 242.316 504.967 233.435L486.528 188.921" stroke="#5451DB" stroke-width="17" stroke-miterlimit="10" stroke-linecap="round" stroke-linejoin="round"></path> <path d="M494.999 171.183C494.999 158.793 484.839 148.748 472.306 148.748C459.772 148.748 449.612 158.793 449.612 171.183C449.612 183.572 459.772 193.617 472.306 193.617C484.839 193.617 494.999 183.572 494.999 171.183Z" stroke="#5451DB" stroke-width="17" stroke-miterlimit="10" stroke-linecap="round" stroke-linejoin="round"></path> <path d="M105.51 209.505V113.051C105.51 110.467 106.437 107.966 108.13 105.984C109.823 104.002 112.173 102.666 114.77 102.21C200.811 87.099 288.911 87.099 374.953 102.21H374.954C377.551 102.666 379.901 104.002 381.594 105.984C383.286 107.966 384.214 110.467 384.214 113.051V209.505" stroke="#5451DB" stroke-width="17" stroke-miterlimit="10" stroke-linecap="round" stroke-linejoin="round"></path> <path d="M330.499 170.46H384.213" stroke="#5451DB" stroke-width="17" stroke-miterlimit="10" stroke-linecap="round" stroke-linejoin="round"></path> <path d="M105.51 170.46H295.5" stroke="#5451DB" stroke-width="17" stroke-miterlimit="10" stroke-linecap="round" stroke-linejoin="round"></path> </svg> 