<?xml version="1.0" encoding="UTF-8"?> <svg xmlns="http://www.w3.org/2000/svg" width="512" height="512" viewBox="0 0 512 512" fill="none"> <path d="M454.889 430.401L446.477 427.028C488.78 379.97 512 319.526 512 256C512 204.029 496.288 154.023 467.661 111.986C467.323 111.318 466.893 110.7 466.384 110.151C453.711 91.8799 438.719 75.3328 421.782 60.925C420.145 59.5665 418.039 58.9078 415.919 59.0919C413.8 59.2759 411.839 60.2878 410.46 61.9082C409.082 63.5285 408.398 65.6268 408.556 67.7482C408.714 69.8696 409.702 71.8431 411.306 73.241C424.907 84.8112 437.179 97.8588 447.895 112.143C430.783 118.831 410.243 124.495 387.313 128.97C380.983 110.11 373.203 92.526 364.057 76.661C351.73 55.276 337.551 38.056 322.098 25.391C346.149 32.267 369.06 42.921 390.085 57.124C391.862 58.3241 394.042 58.7693 396.147 58.3616C398.252 57.9539 400.109 56.7267 401.309 54.95C402.509 53.1733 402.954 50.9927 402.547 48.8877C402.139 46.7828 400.912 44.9261 399.135 43.726C356.796 15.12 307.3 0 256 0C187.619 0 123.333 26.628 74.982 74.982C26.628 123.333 0 187.621 0 256C0 319.608 23.252 380.06 65.624 427.135L57.318 430.388C54.259 431.493 28.248 441.868 28.248 474.941V503.908C28.248 508.374 31.866 512 36.332 512H155.326C155.716 512 156.097 511.963 156.472 511.909C156.848 511.963 157.228 512 157.618 512H190.512C191.574 512 192.625 511.791 193.606 511.385C194.587 510.979 195.478 510.384 196.229 509.633C196.98 508.882 197.575 507.991 197.981 507.01C198.387 506.029 198.596 504.978 198.596 503.916C198.596 502.854 198.387 501.803 197.981 500.822C197.575 499.841 196.979 498.95 196.229 498.199C195.478 497.449 194.587 496.853 193.606 496.447C192.625 496.041 191.574 495.832 190.512 495.832H165.702V467.677C165.702 437.973 189.034 429.429 189.976 429.097C190.101 429.055 190.225 429.01 190.349 428.961L229.717 413.543C229.802 413.635 229.882 413.731 229.972 413.819L250.894 434.197C252.404 435.667 254.428 436.489 256.535 436.49L256.662 436.489C257.727 436.473 258.779 436.246 259.756 435.821C260.733 435.396 261.616 434.783 262.355 434.015L282.444 413.171L321.759 428.937C321.902 428.995 321.996 429.031 322.142 429.079C323.135 429.428 346.47 437.975 346.47 467.677V495.832H215.778C214.716 495.832 213.665 496.041 212.684 496.447C211.703 496.853 210.812 497.449 210.061 498.199C209.311 498.95 208.715 499.841 208.309 500.822C207.903 501.803 207.694 502.854 207.694 503.916C207.694 504.978 207.903 506.029 208.309 507.01C208.715 507.991 209.311 508.882 210.061 509.633C210.812 510.383 211.703 510.979 212.684 511.385C213.665 511.791 214.716 512 215.778 512H475.839C480.305 512 483.923 508.324 483.923 503.859V474.941C483.925 441.995 458.11 431.572 454.889 430.401ZM430.428 420.592L422.459 417.396V412.796C431.266 407.631 438.035 399.358 441.251 389.49C453.012 388.561 462.302 378.714 462.302 366.719C462.302 359.585 459.014 353.209 453.879 349.011V334.643C453.879 306.941 433.091 284.018 406.299 280.616C406.604 275.135 406.815 269.613 406.917 264.084H495.682C493.739 322.601 470.753 377.874 430.428 420.592ZM401.242 402.393H393.869C379.584 402.393 367.963 390.772 367.963 376.489V355.099C378.494 353.956 397.147 350.275 411.518 338.273C414.737 343.794 419.718 349.765 427.148 353.252V376.488C427.147 390.772 415.526 402.393 401.242 402.393ZM406.292 418.247V422.729L397.284 432.075L388.82 423.832V418.246C390.477 418.445 392.16 418.56 393.87 418.56H401.243C402.953 418.561 404.634 418.446 406.292 418.247ZM359.905 339.456H359.878C359.602 339.456 359.327 339.47 359.053 339.498C358.966 339.507 358.881 339.525 358.794 339.537C358.612 339.561 358.43 339.583 358.252 339.62C358.13 339.644 358.013 339.681 357.893 339.712C357.754 339.747 357.614 339.777 357.479 339.819C357.391 339.846 357.308 339.883 357.221 339.913V334.644C357.221 313.518 374.408 296.332 395.534 296.332H399.4C420.525 296.332 437.709 313.518 437.709 334.644V339.847C437.557 339.798 437.403 339.76 437.247 339.721C437.173 339.7 437.099 339.676 437.024 339.657C425.754 337.094 422.068 322.053 422.041 321.939C421.698 320.422 420.924 319.037 419.813 317.948C418.701 316.86 417.3 316.116 415.776 315.805C414.252 315.493 412.671 315.627 411.222 316.191C409.773 316.756 408.517 317.727 407.606 318.987C392.967 339.224 360.333 339.456 359.905 339.456ZM443.315 372.167V361.273C445.017 362.488 446.133 364.475 446.133 366.721C446.133 368.967 445.017 370.952 443.315 372.167ZM457.383 125.748C480.8 161.924 494.209 204.038 495.68 247.915H406.913C406.257 211.526 401.172 176.429 392.105 144.466C416.96 139.529 439.121 133.22 457.383 125.748ZM390.743 247.917H307.977C296.948 235.725 281.444 227.67 264.084 226.33V156.81C303.755 156.415 342.038 153.116 376.146 147.383C385.071 178.295 390.08 212.429 390.743 247.917ZM319.43 332.335C319.43 337.09 316.218 341.099 311.851 342.332V322.335C316.218 323.57 319.43 327.58 319.43 332.335ZM264.084 16.617C296.255 20.053 326.523 43.923 350.049 84.735C358.305 99.056 365.394 114.878 371.238 131.85C338.644 137.187 302.065 140.259 264.083 140.64V16.617H264.084ZM258.957 242.28C286.494 242.28 308.896 264.684 308.896 292.222V302.101C308.842 302.058 308.785 302.02 308.73 301.977C308.613 301.884 308.493 301.795 308.371 301.71C308.276 301.644 308.178 301.583 308.08 301.521C307.96 301.443 307.838 301.369 307.713 301.298C307.598 301.233 307.479 301.176 307.361 301.117C307.248 301.061 307.136 301.004 307.02 300.952C306.878 300.889 306.731 300.837 306.586 300.782C306.485 300.744 306.385 300.705 306.283 300.671C306.12 300.617 305.952 300.574 305.785 300.531C305.711 300.51 305.638 300.485 305.562 300.467C290.205 296.975 285.34 276.952 285.299 276.778C284.956 275.261 284.182 273.875 283.071 272.787C281.959 271.699 280.558 270.955 279.034 270.644C277.51 270.331 275.929 270.465 274.48 271.03C273.03 271.594 271.775 272.565 270.864 273.826C251.933 299.998 210.114 300.266 209.562 300.266H209.531C209.253 300.266 208.977 300.28 208.706 300.307C208.621 300.317 208.539 300.334 208.454 300.346C208.271 300.371 208.085 300.393 207.905 300.429C207.79 300.453 207.678 300.489 207.563 300.517C207.419 300.553 207.272 300.585 207.132 300.628C207.001 300.669 206.875 300.722 206.747 300.769C206.63 300.812 206.508 300.85 206.392 300.898C206.244 300.961 206.103 301.035 205.962 301.104C205.87 301.149 205.777 301.188 205.687 301.237C205.541 301.315 205.405 301.405 205.265 301.491C205.185 301.542 205.101 301.587 205.021 301.64C204.891 301.728 204.768 301.826 204.642 301.922C204.561 301.983 204.477 302.039 204.398 302.104C204.324 302.165 204.255 302.234 204.182 302.298V292.221C204.182 264.683 226.584 242.28 254.121 242.28H258.957ZM121.257 247.916C121.92 212.422 126.931 178.281 135.858 147.366C170.014 153.107 208.338 156.413 247.916 156.811V226.413C230.969 228 215.862 236.002 205.057 247.97C204.76 247.936 204.46 247.918 204.161 247.917H121.257V247.916ZM201.447 322.252V342.418C196.914 341.297 193.541 337.209 193.541 332.335C193.54 327.462 196.914 323.374 201.447 322.252ZM247.916 16.617V140.64C210.024 140.256 173.416 137.172 140.77 131.825C146.613 114.863 153.699 99.051 161.951 84.735C185.477 43.923 215.745 20.053 247.916 16.617ZM189.813 25.462C174.395 38.122 160.246 55.315 147.942 76.66C138.799 92.521 131.022 110.097 124.693 128.952C101.792 124.483 81.285 118.832 64.205 112.17C95.167 70.985 139.067 40.054 189.813 25.462ZM54.69 125.786C72.906 133.23 95.071 139.515 119.902 144.447C110.829 176.414 105.744 211.519 105.086 247.916H16.32C17.815 203.01 31.71 161.193 54.69 125.786ZM106.783 418.248C108.44 418.447 110.123 418.561 111.833 418.561H119.207C120.915 418.561 122.598 418.447 124.254 418.247V422.728L115.248 432.074L106.783 423.831V418.248ZM119.207 402.393H111.833C97.548 402.393 85.927 390.772 85.927 376.488V355.108C96.456 353.969 115.102 350.282 129.482 338.273C132.702 343.795 137.682 349.767 145.111 353.254V376.489C145.11 390.772 133.49 402.393 119.207 402.393ZM140.008 321.938C139.665 320.421 138.891 319.035 137.78 317.947C136.668 316.859 135.267 316.115 133.743 315.804C132.22 315.492 130.638 315.626 129.189 316.19C127.74 316.755 126.485 317.725 125.574 318.986C110.924 339.235 78.264 339.457 77.87 339.457H77.843C77.565 339.457 77.289 339.471 77.018 339.498C76.933 339.508 76.851 339.525 76.766 339.537C76.583 339.561 76.397 339.584 76.217 339.62C76.102 339.644 75.99 339.68 75.875 339.708C75.731 339.744 75.585 339.776 75.444 339.819C75.357 339.846 75.275 339.883 75.189 339.913V334.644C75.189 313.518 92.375 296.331 113.501 296.331H117.368C138.493 296.331 155.677 313.518 155.677 334.644V339.848H155.675C155.52 339.797 155.359 339.759 155.201 339.718C155.13 339.7 155.061 339.675 154.989 339.658C143.721 337.095 140.035 322.051 140.008 321.938ZM16.319 264.084H105.084C105.185 269.652 105.4 275.213 105.707 280.729C79.346 284.52 59.018 307.248 59.018 334.643V348.948C53.833 353.144 50.508 359.548 50.508 366.719C50.508 378.803 59.941 388.702 71.828 389.504C75.044 399.366 81.81 407.632 90.614 412.796V417.349L81.783 420.807C41.322 378.056 18.263 322.727 16.319 264.084ZM69.757 361.093V372.345C68.8135 371.741 68.0368 370.909 67.4985 369.926C66.9602 368.944 66.6773 367.841 66.676 366.721C66.6773 365.6 66.9601 364.497 67.4984 363.514C68.0367 362.531 68.8133 361.698 69.757 361.093ZM149.532 467.678V495.832H44.417V474.941C44.417 452.402 62.037 445.87 62.722 445.627C62.847 445.585 62.972 445.54 63.095 445.491L93.586 433.55L109.788 449.33C111.297 450.8 113.321 451.623 115.428 451.623L115.556 451.622C116.621 451.606 117.672 451.379 118.649 450.954C119.626 450.529 120.509 449.916 121.248 449.148L136.552 433.266L155.469 440.851C151.882 448.192 149.532 457.083 149.532 467.678ZM227.53 397.036L184.622 413.839C179.158 415.719 171.596 420.056 164.888 427.208L140.421 417.396V412.798C149.23 407.632 155.998 399.359 159.214 389.49C170.976 388.561 180.267 378.714 180.267 366.719C180.267 359.585 176.978 353.209 171.843 349.011V334.643C171.843 306.124 149.813 282.669 121.88 280.364C121.569 274.941 121.361 269.513 121.256 264.083H194.316C190.157 272.879 188.004 282.49 188.012 292.22V311.084C181.555 315.935 177.37 323.654 177.37 332.335C177.37 346.845 189.067 358.669 203.527 358.891C207.321 371.705 216.06 382.411 227.528 388.79V397.036H227.53ZM161.279 372.168V361.27C162.982 362.486 164.099 364.473 164.099 366.72C164.099 368.967 162.982 370.953 161.279 372.168ZM269.601 402.678V403.198L256.355 416.943L243.698 404.615V394.443C246.413 394.896 249.197 395.143 252.04 395.143H261.262C264.103 395.143 266.886 394.896 269.601 394.445V402.678ZM261.262 378.976H252.04C233.058 378.976 217.615 363.534 217.615 344.552V316.01C230.517 314.822 256.029 310.337 274.664 293.608C278.597 301.051 285.19 309.692 295.684 314.174V344.551C295.683 363.534 280.242 378.976 261.262 378.976ZM347.334 427.263C340.627 420.093 333.056 415.741 327.58 413.851L285.768 397.082V388.79C297.239 382.41 305.976 371.701 309.769 358.883C324.076 358.487 335.596 346.734 335.596 332.336C335.596 323.705 331.456 316.025 325.062 311.169V292.221C325.071 282.491 322.918 272.88 318.758 264.084H390.741C390.635 269.538 390.425 274.989 390.11 280.435C362.604 283.164 341.05 306.433 341.05 334.643V348.95C335.866 353.145 332.542 359.549 332.542 366.72C332.542 378.805 341.975 388.704 353.862 389.505C357.078 399.367 363.845 407.633 372.649 412.797V417.35L347.334 427.263ZM351.795 361.093V372.345C350.851 371.741 350.075 370.909 349.536 369.926C348.998 368.944 348.715 367.842 348.714 366.721C348.715 365.6 348.998 364.497 349.536 363.514C350.075 362.53 350.851 361.698 351.795 361.093ZM467.757 495.832H362.641V467.677C362.641 457.125 360.312 448.264 356.748 440.941L375.624 433.549L391.824 449.329C393.333 450.8 395.358 451.623 397.465 451.623L397.592 451.622C398.657 451.606 399.709 451.378 400.686 450.954C401.663 450.529 402.546 449.915 403.285 449.148L418.59 433.266L449.016 445.466C449.158 445.524 449.237 445.554 449.384 445.604C450.134 445.87 467.758 452.403 467.758 474.942V495.832H467.757Z" fill="#5451DB"></path> </svg> 