<?xml version="1.0" encoding="UTF-8"?> <svg xmlns="http://www.w3.org/2000/svg" width="50" height="48" viewBox="0 0 50 48" fill="none"> <path fill-rule="evenodd" clip-rule="evenodd" d="M2.67919 0.200172C1.53494 0.568481 0.584229 1.48822 0.206038 2.59268C0.00164479 3.18966 0.00135154 3.21112 0.00135154 18.7485C0.00135154 34.2264 0.00242677 34.3095 0.203399 34.8815C0.577973 35.9476 1.23827 36.6475 2.34273 37.1493L2.9827 37.4401L11.5602 37.466L20.1377 37.4919V39.3637V41.2356L18.9402 41.2372C18.2718 41.2382 17.4461 41.2992 17.0712 41.3753C14.8589 41.8246 12.9321 43.672 12.4634 45.793C12.2 46.9848 12.3059 47.5945 12.8207 47.8497C13.2247 48.0501 36.8255 48.0501 37.2296 47.8497C37.7443 47.5945 37.8502 46.9848 37.5868 45.793C37.1181 43.672 35.1913 41.8246 32.9791 41.3753C32.6041 41.2992 31.7784 41.2382 31.11 41.2372L29.9126 41.2356V39.3637V37.4919L38.4952 37.466L47.0779 37.4401L47.8164 37.0901C48.706 36.6685 49.2601 36.1258 49.6906 35.2546L50 34.6286V18.7435V2.85846L49.6967 2.24489C49.1733 1.18598 48.4433 0.552923 47.3314 0.193799C46.7428 0.00374093 46.5674 8.59788e-05 37.9751 8.59788e-05C28.4651 8.59788e-05 28.8159 -0.0190323 28.5631 0.512906C28.4154 0.823672 28.4154 1.05084 28.5631 1.36161C28.8156 1.89299 28.4815 1.87443 37.7896 1.87443C44.2743 1.87443 46.458 1.90236 46.7606 1.98933C47.2726 2.13637 47.8207 2.66184 47.9741 3.15273C48.0662 3.44775 48.0939 6.63011 48.0939 16.9503V30.3644H34.7511H21.4084V27.9747C21.4084 26.6603 21.4421 25.5849 21.4834 25.5849C21.5246 25.5849 22.0414 26.0505 22.6319 26.6195C23.2224 27.1886 23.9145 27.7835 24.17 27.9414C25.6402 28.8507 27.7173 28.7892 29.0969 27.7953C30.0809 27.0862 32.4815 24.993 32.7604 24.6008C33.8165 23.1158 33.2199 21.0358 31.506 20.2269C30.9486 19.9637 30.758 19.9213 30.1645 19.9281C29.2745 19.9382 28.8197 20.1079 27.8228 20.8025C27.3766 21.1132 26.971 21.3676 26.9215 21.3676C26.872 21.3676 25.9963 20.565 24.9753 19.584C23.0397 17.7242 22.1817 17.0696 20.9842 16.5392C20.2371 16.2082 18.9787 15.8383 18.6001 15.8383C18.4781 15.8383 18.3782 15.8214 18.3782 15.8008C18.3782 15.7803 18.5287 15.5489 18.7128 15.2868C19.0906 14.7484 19.4226 13.9579 19.5577 13.2748C19.6934 12.5891 19.6649 10.9125 19.5055 10.1912C18.927 7.57356 16.1844 5.75863 13.4282 6.16939C11.2064 6.50059 9.40608 8.15873 8.93356 10.309C8.82086 10.8221 8.79173 11.3281 8.82575 12.1833C8.87912 13.5289 9.13033 14.3855 9.72181 15.2396L10.0691 15.7411L9.8005 15.7991C8.95595 15.9815 8.67687 16.0733 7.9679 16.4026C6.52864 17.071 5.36914 18.1658 4.67522 19.5112C3.96889 20.8807 3.97661 20.8147 3.93683 25.8426L3.90095 30.3644H2.92864H1.95633V16.9503C1.95633 6.63011 1.984 3.44775 2.07617 3.15273C2.22954 2.66184 2.77762 2.13637 3.28963 1.98933C3.59226 1.90236 5.77598 1.87443 12.2606 1.87443C21.5687 1.87443 21.2346 1.89299 21.4871 1.36161C21.6348 1.05084 21.6348 0.823672 21.4871 0.512906C21.2341 -0.0194072 21.5885 -0.00028889 12.0538 0.00411582C3.47076 0.00805194 3.26275 0.0124566 2.67919 0.200172ZM24.5471 0.130915C23.6997 0.581226 24.0543 1.87443 25.0251 1.87443C25.5204 1.87443 26.0026 1.41662 26.0026 0.946348C26.0026 0.24272 25.1916 -0.211621 24.5471 0.130915ZM28.97 5.15378C28.5169 5.32903 28.295 6.02048 28.547 6.47172C28.8031 6.93056 28.861 6.93516 34.3995 6.93516C38.2082 6.93516 39.6484 6.90554 39.8368 6.82316C40.117 6.70077 40.3717 6.30781 40.3717 5.99798C40.3717 5.68815 40.117 5.2952 39.8368 5.1728C39.5311 5.03916 29.3123 5.02126 28.97 5.15378ZM43.3149 5.19164C42.4676 5.64195 42.8221 6.93516 43.7929 6.93516C44.2882 6.93516 44.7704 6.47735 44.7704 6.00707C44.7704 5.30345 43.9594 4.84911 43.3149 5.19164ZM15.6263 8.29602C16.354 8.61419 17.0269 9.26084 17.369 9.97065C17.6304 10.5128 17.6451 10.6132 17.6451 11.8573C17.6451 13.1529 17.6406 13.18 17.3243 13.7958C16.929 14.5657 16.2361 15.1888 15.4654 15.4674C14.7098 15.7405 13.4767 15.6939 12.7576 15.3649C12.1448 15.0846 11.4483 14.4258 11.1596 13.8534C10.693 12.9282 10.6381 11.1439 11.0441 10.1036C11.4092 9.16815 12.331 8.37484 13.386 8.08835C14.018 7.91684 14.9585 8.004 15.6263 8.29602ZM28.97 9.6522C28.5169 9.82745 28.295 10.5189 28.547 10.9701C28.775 11.3786 29.0985 11.4336 31.2747 11.4336H33.3307L33.6389 11.1697C33.8955 10.9498 33.947 10.8373 33.947 10.4964C33.947 10.1556 33.8955 10.043 33.6389 9.82314L33.3307 9.55924L31.2551 9.56514C30.1134 9.56842 29.0852 9.60759 28.97 9.6522ZM36.7941 9.87787C36.5546 10.1075 36.4618 10.2803 36.4618 10.4964C36.4618 10.7125 36.5546 10.8853 36.7941 11.1149L37.1264 11.4336H40.6048H44.0831L44.4001 11.162C44.6624 10.9373 44.7172 10.8225 44.7172 10.4964C44.7172 10.1703 44.6624 10.0556 44.4001 9.83083L44.0831 9.55924H40.6048H37.1264L36.7941 9.87787ZM28.97 14.1506C28.5169 14.3259 28.295 15.0173 28.547 15.4686C28.8099 15.9396 28.6776 15.932 36.6509 15.932H44.0831L44.4001 15.6604C44.6624 15.4357 44.7172 15.321 44.7172 14.9948C44.7172 14.6687 44.6624 14.554 44.4001 14.3293L44.0831 14.0577L36.6313 14.0636C32.5327 14.0668 29.0852 14.106 28.97 14.1506ZM13.2952 19.5251C13.3432 21.4419 13.3484 21.4817 13.5764 21.6584C13.9277 21.9308 14.2509 21.9746 14.6306 21.801C15.1784 21.5505 15.2502 21.2544 15.2502 19.2477V17.4968L16.664 17.5608C18.6697 17.6517 20.0118 18.0243 21.2801 18.8425C21.5388 19.0094 22.7964 20.1413 24.0748 21.3579C26.9224 24.0681 26.6491 23.9742 28.2997 22.8088C29.6164 21.8791 29.7006 21.8362 30.2091 21.8362C30.5419 21.8362 30.6772 21.8945 30.9487 22.1548C31.225 22.4198 31.281 22.5422 31.2806 22.8811C31.2803 23.1078 31.2043 23.4025 31.1095 23.5448C30.9231 23.8247 28.3276 26.0266 27.7376 26.4054C27.4653 26.5801 27.199 26.6526 26.7034 26.6866C25.6294 26.7603 25.4575 26.6496 23.1241 24.3828C20.9072 22.229 20.7104 22.0966 20.0937 22.3437C19.4662 22.595 19.4534 22.6832 19.4534 26.7533V30.3644H14.8103H10.1673V27.7933C10.1673 26.3792 10.126 25.1181 10.0755 24.9908C9.80695 24.3136 8.96514 24.139 8.45049 24.6537L8.1634 24.9408L8.13349 27.6526L8.10348 30.3644H6.98494H5.8663L5.86796 26.2643C5.86991 21.6777 5.90491 21.3441 6.49873 20.2608C6.90693 19.516 7.54465 18.8579 8.34062 18.3602C9.35613 17.7252 10.2499 17.5385 12.1711 17.5601L13.2464 17.5721L13.2952 19.5251ZM37.059 18.6869C36.5965 18.9326 36.4423 19.4726 36.6988 19.9483C36.9494 20.413 37.095 20.4304 40.7169 20.4304H44.0831L44.4001 20.1588C44.6624 19.9341 44.7172 19.8194 44.7172 19.4933C44.7172 19.1671 44.6624 19.0524 44.4001 18.8277L44.0831 18.5561L40.6878 18.5594C38.0576 18.562 37.24 18.5907 37.059 18.6869ZM48.0939 33.1653C48.0939 33.9966 48.0659 34.143 47.8218 34.5912C47.6014 34.9956 47.4503 35.1405 47.0285 35.3517L46.5076 35.6126H25.0986C8.47766 35.6126 3.60018 35.5869 3.28963 35.4977C2.77762 35.3507 2.22954 34.8252 2.07617 34.3343C2.01029 34.1233 1.95633 33.5656 1.95633 33.0948V32.2388H25.0251H48.0939V33.1653ZM24.5471 33.1194C23.6997 33.5697 24.0543 34.8629 25.0251 34.8629C25.5204 34.8629 26.0026 34.4051 26.0026 33.9348C26.0026 33.2312 25.1916 32.7768 24.5471 33.1194ZM27.9576 39.3613V41.2356H25.0251H22.0926V39.3613V37.4869H25.0251H27.9576V39.3613ZM3.74983 40.9938C1.97579 41.4064 0.480713 42.8836 0.109364 44.5906C-0.050651 45.3263 -0.0307102 47.1834 0.140644 47.5011C0.395769 47.9741 0.48648 47.9833 4.89829 47.9833C9.35154 47.9833 9.41928 47.976 9.65945 47.4705C9.80773 47.1586 9.8135 45.2584 9.66825 44.5906C9.28624 42.8344 7.71776 41.3306 5.88594 40.9643C5.22702 40.8326 4.39371 40.8441 3.74983 40.9938ZM6.08232 42.9946C6.65738 43.2385 7.29715 43.8528 7.55256 44.4066C7.66273 44.6453 7.77416 45.1261 7.80026 45.4748L7.84757 46.1089H4.9019H1.95633V45.6574C1.95633 43.9559 3.33968 42.6599 5.04139 42.7671C5.36729 42.7876 5.8357 42.89 6.08232 42.9946ZM33.1108 43.3576C34.1948 43.7842 35.1027 44.6547 35.4944 45.6432L35.679 46.1089H25.0251H14.3712L14.5558 45.6432C14.8065 45.0106 15.3606 44.3097 15.9148 43.924C17.1225 43.0836 16.7306 43.1166 25.2206 43.1381C32.5176 43.1566 32.6064 43.1591 33.1108 43.3576Z" fill="#5451DB"></path> </svg> 