<?xml version="1.0" encoding="UTF-8"?> <svg xmlns="http://www.w3.org/2000/svg" width="50" height="50" viewBox="0 0 50 50" fill="none"><g clip-path="url(#clip0_1212_1016)"><path d="M38.3333 26.6667C36.7797 26.6665 35.2419 26.9777 33.8106 27.5818C32.3793 28.186 31.0836 29.0708 30 30.1842V3.33333C30 2.44928 29.6488 1.60143 29.0237 0.976311C28.3986 0.35119 27.5507 0 26.6667 0L3.33333 0C2.44928 0 1.60143 0.35119 0.976311 0.976311C0.35119 1.60143 0 2.44928 0 3.33333L0 40C0 40.8841 0.35119 41.7319 0.976311 42.357C1.60143 42.9821 2.44928 43.3333 3.33333 43.3333H26.6667C27.0267 43.3317 27.3833 43.2733 27.7242 43.1583C28.5919 45.0652 29.9573 46.7031 31.6768 47.8999C33.3963 49.0967 35.4065 49.8082 37.4961 49.9595C39.5856 50.1109 41.6774 49.6965 43.5514 48.76C45.4255 47.8236 47.0127 46.3995 48.1461 44.6376C49.2796 42.8756 49.9175 40.8409 49.9927 38.7472C50.068 36.6536 49.5778 34.5783 48.5738 32.7395C47.5698 30.9008 46.0889 29.3664 44.2869 28.2978C42.4849 27.2292 40.4284 26.6657 38.3333 26.6667ZM27.1583 35H1.66667V8.33333H28.3333V32.355C27.8324 33.184 27.4377 34.0726 27.1583 35ZM3.33333 1.66667H26.6667C27.1087 1.66667 27.5326 1.84226 27.8452 2.15482C28.1577 2.46738 28.3333 2.89131 28.3333 3.33333V6.66667H1.66667V3.33333C1.66667 2.89131 1.84226 2.46738 2.15482 2.15482C2.46738 1.84226 2.89131 1.66667 3.33333 1.66667ZM26.6667 41.6667H3.33333C2.89131 41.6667 2.46738 41.4911 2.15482 41.1785C1.84226 40.866 1.66667 40.442 1.66667 40V36.6667H26.8C26.5428 38.3127 26.6584 39.9955 27.1383 41.5908C26.9856 41.6388 26.8267 41.6644 26.6667 41.6667ZM38.3333 48.3333C32.8108 48.3333 28.3333 43.8558 28.3333 38.3333C28.3333 32.8108 32.8108 28.3333 38.3333 28.3333C43.8558 28.3333 48.3333 32.8108 48.3333 38.3333C48.3275 43.8533 43.8533 48.3275 38.3333 48.3333Z" fill="#5451DB"></path><path d="M15 10.8333C9.01663 10.8333 4.16663 15.6833 4.16663 21.6666C4.16663 27.6499 9.01663 32.4999 15 32.4999C20.9833 32.4999 25.8333 27.6499 25.8333 21.6666C25.8266 15.6866 20.98 10.8399 15 10.8333ZM15 30.8333C9.93746 30.8333 5.83329 26.7291 5.83329 21.6666C5.83329 16.6041 9.93746 12.4999 15 12.4999C20.0625 12.4999 24.1666 16.6041 24.1666 21.6666C24.1608 26.7266 20.06 30.8274 15 30.8333ZM18.3333 4.99992H19.1666C19.3876 4.99992 19.5996 4.91212 19.7559 4.75584C19.9122 4.59956 20 4.3876 20 4.16659C20 3.94557 19.9122 3.73361 19.7559 3.57733C19.5996 3.42105 19.3876 3.33325 19.1666 3.33325H18.3333C18.1123 3.33325 17.9003 3.42105 17.744 3.57733C17.5878 3.73361 17.5 3.94557 17.5 4.16659C17.5 4.3876 17.5878 4.59956 17.744 4.75584C17.9003 4.91212 18.1123 4.99992 18.3333 4.99992ZM10.8333 4.99992H15C15.221 4.99992 15.4329 4.91212 15.5892 4.75584C15.7455 4.59956 15.8333 4.3876 15.8333 4.16659C15.8333 3.94557 15.7455 3.73361 15.5892 3.57733C15.4329 3.42105 15.221 3.33325 15 3.33325H10.8333C10.6123 3.33325 10.4003 3.42105 10.244 3.57733C10.0878 3.73361 9.99996 3.94557 9.99996 4.16659C9.99996 4.3876 10.0878 4.59956 10.244 4.75584C10.4003 4.91212 10.6123 4.99992 10.8333 4.99992ZM16.6666 38.3333H13.3333C13.1123 38.3333 12.9003 38.421 12.744 38.5773C12.5878 38.7336 12.5 38.9456 12.5 39.1666C12.5 39.3876 12.5878 39.5996 12.744 39.7558C12.9003 39.9121 13.1123 39.9999 13.3333 39.9999H16.6666C16.8876 39.9999 17.0996 39.9121 17.2559 39.7558C17.4122 39.5996 17.5 39.3876 17.5 39.1666C17.5 38.9456 17.4122 38.7336 17.2559 38.5773C17.0996 38.421 16.8876 38.3333 16.6666 38.3333ZM42.9166 32.6133C42.8221 32.5581 42.7176 32.5221 42.6091 32.5073C42.5007 32.4925 42.3903 32.4992 42.2845 32.5271C42.1786 32.5549 42.0793 32.6034 41.9921 32.6696C41.905 32.7359 41.8318 32.8187 41.7766 32.9132L36.4916 41.9799L34.7558 40.2441C34.5986 40.0923 34.3881 40.0083 34.1696 40.0102C33.9511 40.0121 33.7421 40.0997 33.5876 40.2542C33.4331 40.4087 33.3455 40.6178 33.3436 40.8363C33.3417 41.0547 33.4257 41.2653 33.5775 41.4224L36.0775 43.9224C36.1676 44.0126 36.2773 44.0809 36.3979 44.1221C36.5186 44.1632 36.6472 44.1761 36.7736 44.1598C36.9001 44.1434 37.0211 44.0983 37.1274 44.0278C37.2337 43.9573 37.3224 43.8634 37.3866 43.7533L43.22 33.7533C43.275 33.6585 43.3108 33.5538 43.3254 33.4452C43.3399 33.3366 43.3329 33.2262 43.3047 33.1203C43.2765 33.0145 43.2278 32.9152 43.1612 32.8281C43.0946 32.7411 43.0115 32.6681 42.9166 32.6133Z" fill="#5451DB"></path><path d="M19.43 23.3767C19.2204 23.3071 18.9918 23.3234 18.7943 23.4222C18.5968 23.5209 18.4466 23.694 18.3766 23.9034C18.37 23.9226 17.7016 25.8334 15 25.8334C12.3433 25.8334 11.6491 23.9751 11.6233 23.9034C11.5535 23.6935 11.4031 23.5198 11.2052 23.4208C11.0074 23.3217 10.7783 23.3052 10.5683 23.3751C10.3583 23.4449 10.1847 23.5953 10.0856 23.7932C9.98655 23.991 9.97012 24.2201 10.04 24.4301C10.0833 24.5559 11.1108 27.5001 15 27.5001C18.8891 27.5001 19.9166 24.5559 19.9566 24.4301C20.0263 24.2206 20.01 23.9919 19.9112 23.7945C19.8125 23.597 19.6394 23.4467 19.43 23.3767ZM11.6666 20.0001C11.8876 20.0001 12.0996 19.9123 12.2559 19.756C12.4122 19.5997 12.5 19.3878 12.5 19.1667V17.5001C12.5 17.2791 12.4122 17.0671 12.2559 16.9108C12.0996 16.7545 11.8876 16.6667 11.6666 16.6667C11.4456 16.6667 11.2337 16.7545 11.0774 16.9108C10.9211 17.0671 10.8333 17.2791 10.8333 17.5001V19.1667C10.8333 19.3878 10.9211 19.5997 11.0774 19.756C11.2337 19.9123 11.4456 20.0001 11.6666 20.0001ZM18.3333 20.0001C18.5543 20.0001 18.7663 19.9123 18.9226 19.756C19.0788 19.5997 19.1666 19.3878 19.1666 19.1667V17.5001C19.1666 17.2791 19.0788 17.0671 18.9226 16.9108C18.7663 16.7545 18.5543 16.6667 18.3333 16.6667C18.1123 16.6667 17.9003 16.7545 17.744 16.9108C17.5878 17.0671 17.5 17.2791 17.5 17.5001V19.1667C17.5 19.3878 17.5878 19.5997 17.744 19.756C17.9003 19.9123 18.1123 20.0001 18.3333 20.0001Z" fill="#5451DB"></path></g><defs><clipPath id="clip0_1212_1016"><rect width="50" height="50" fill="white"></rect></clipPath></defs></svg> 